PathFileType	4	(X/Y/Z)	c:/Users/goper/Files/vsCode/490R/osim_files/A05/A05_Slow_04.trc
DataRate	CameraRate	NumFrames	NumMarkers	Units                	OrigDataRate	OrigDataStartFrame	OrigNumFrames
250.00	250.00	7	36	mm	250.0	768	3068
                Frame#	Time	LPSIS			LASIS			LTH1			LTH2			LTH3			LTH4			LLFE			LMFE			LSH1			LSH2			LSH3			LSH4			LLMAL			LMMAL			LCAL			LMTP5			LTOE			LMTP1			RPSIS			RASIS			RTH1			RTH2			RTH3			RTH4			RLFE			RMFE			RSH1			RSH2			RSH3			RSH4			RLMAL			RMMAL			RCAL			RMTP1			RTOE			RMTP5		
		X1	Y1	Z1	X2	Y2	Z2	X3	Y3	Z3	X4	Y4	Z4	X5	Y5	Z5	X6	Y6	Z6	X7	Y7	Z7	X8	Y8	Z8	X9	Y9	Z9	X10	Y10	Z10	X11	Y11	Z11	X12	Y12	Z12	X13	Y13	Z13	X14	Y14	Z14	X15	Y15	Z15	X16	Y16	Z16	X17	Y17	Z17	X18	Y18	Z18	X19	Y19	Z19	X20	Y20	Z20	X21	Y21	Z21	X22	Y22	Z22	X23	Y23	Z23	X24	Y24	Z24	X25	Y25	Z25	X26	Y26	Z26	X27	Y27	Z27	X28	Y28	Z28	X29	Y29	Z29	X30	Y30	Z30	X31	Y31	Z31	X32	Y32	Z32	X33	Y33	Z33	X34	Y34	Z34	X35	Y35	Z35	X36	Y36	Z36

768	3.06800	1422.59302	1017.53442	409.18765	0.00000	0.00000	0.00000	0.00000	0.00000	0.00000	1391.04846	649.60822	540.20911	0.00000	0.00000	0.00000	1339.57556	650.82819	554.77246	1345.18530	473.32104	524.25458	1346.25671	476.45804	425.05856	1332.72375	367.67435	518.73352	0.00000	0.00000	0.00000	1394.99744	384.24310	531.26099	1401.27112	339.50327	533.46503	1408.86914	112.69392	518.14276	1412.79468	118.45635	430.23676	1495.33643	66.77148	467.90668	1283.95935	46.65142	543.32013	1232.23230	69.12311	481.85809	1275.55933	63.59813	433.67606	1420.56116	1020.56732	327.52676	1242.36548	989.51697	213.08357	1163.51001	638.29224	121.91496	1141.00928	603.37610	128.30830	1113.40710	667.26007	144.44122	1097.67981	622.19897	151.02150	0.00000	0.00000	0.00000	1154.30920	558.39276	135.37144	1174.68274	297.43326	131.27196	1171.73584	250.47678	139.86404	1111.12317	295.26892	133.17087	0.00000	0.00000	0.00000	1157.94324	136.55139	153.26474	1115.04395	172.89139	232.24852	1197.47949	85.94584	235.88362	985.47510	94.17615	205.29762	964.76135	110.54083	146.08633	1033.54675	77.05199	98.64217
769	3.07200	1419.51416	1017.59351	408.94806	0.00000	0.00000	0.00000	0.00000	0.00000	0.00000	1389.07019	649.77924	540.10675	0.00000	0.00000	0.00000	1337.52466	650.79059	554.69983	1343.84534	473.41226	524.27954	1344.83362	476.49258	425.05627	1331.63379	367.59018	518.72675	1346.05396	325.65546	521.38654	1393.87085	384.42352	531.25128	1398.42651	338.63120	533.37421	1408.71399	112.83816	518.20007	1412.62854	118.56858	430.26276	1495.21375	66.94931	467.93018	1283.80298	46.55442	543.31042	1232.14001	68.98957	481.86673	1275.52783	63.63691	433.67038	1417.41406	1020.54718	327.28647	1239.28418	989.03461	212.83418	1161.88147	636.99939	122.57881	1139.33472	602.07922	129.00439	1111.63550	665.98242	144.75443	1095.91309	620.88837	151.42119	0.00000	0.00000	0.00000	1152.53711	557.09644	136.12314	1167.10327	295.56799	131.90039	1163.25696	248.75200	140.39909	1103.68884	294.86163	133.41512	0.00000	0.00000	0.00000	1146.43921	134.93454	153.53860	1105.87219	173.35030	232.17702	1180.95740	81.70306	235.08722	973.07812	97.78271	202.98413	952.71198	113.25647	145.34070	1021.04590	78.34863	98.16719
770	3.07600	1416.50061	1017.69885	408.64005	0.00000	0.00000	0.00000	0.00000	0.00000	0.00000	1387.11780	649.97449	540.00323	0.00000	0.00000	0.00000	1335.62366	650.86456	554.62567	1342.38562	473.41275	524.21832	1343.38403	476.52356	425.01779	0.00000	0.00000	0.00000	1346.64746	325.42636	522.68829	1392.82288	384.68152	531.18671	1398.13721	339.63812	533.20441	1408.53687	112.95614	518.26453	1412.47729	118.73229	430.28204	1494.46399	66.95638	467.96695	1283.76892	46.56408	543.29810	1232.05005	68.89147	481.86099	1275.45447	63.64129	433.68890	1414.22522	1020.50275	327.03207	1236.04211	988.41052	212.62509	1160.35278	635.64392	123.25380	1137.80090	600.70990	129.70128	1109.88684	664.66339	145.06355	1094.22327	619.57599	151.71750	0.00000	0.00000	0.00000	1150.92505	555.79291	136.98697	1159.74390	293.85629	132.55513	1154.67419	247.10959	140.94786	1096.32593	294.55661	133.63831	0.00000	0.00000	0.00000	1135.01282	133.64496	153.80573	1078.42163	164.99202	232.65645	1167.80823	79.21985	235.38753	960.55530	99.99519	202.41223	940.81439	116.11519	144.84155	1008.59564	79.78925	97.76348
771	3.08000	1413.46533	1017.77472	408.32394	0.00000	0.00000	0.00000	0.00000	0.00000	0.00000	1385.18860	650.17889	539.88446	0.00000	0.00000	0.00000	1333.59106	650.85138	554.50586	1340.89197	473.36716	524.17230	1341.84973	476.52756	425.00644	0.00000	0.00000	0.00000	1343.47888	325.09561	521.24548	1391.78455	384.83948	531.13593	1397.14038	339.84122	533.13635	1409.60779	113.21767	519.09668	1412.28943	118.90626	430.31076	1494.35425	67.14799	467.99759	1283.67212	46.51842	543.29425	1231.98267	68.74433	481.85275	1275.38037	63.61145	433.67731	1411.01892	1020.47375	326.76343	1232.81104	987.77960	212.49318	1158.81177	634.24475	123.95624	1136.35181	599.30341	130.41959	1108.19775	663.18066	145.30930	1092.55359	618.10608	152.20361	0.00000	0.00000	0.00000	1149.40283	554.44690	137.85402	1152.46790	292.13629	133.18875	1146.26306	245.57013	141.41180	1089.09192	294.28979	133.93649	0.00000	0.00000	0.00000	1123.63318	132.37125	154.08614	0.00000	0.00000	0.00000	1155.70886	77.05357	236.25644	948.15417	100.97808	203.50331	929.20288	119.04084	144.39262	996.27460	81.36115	97.36972
772	3.08400	1410.37537	1017.79626	407.99844	0.00000	0.00000	0.00000	0.00000	0.00000	0.00000	1383.18787	650.34229	539.73901	0.00000	0.00000	0.00000	1331.57727	650.82990	554.41278	1339.62744	473.48679	524.21234	1340.15002	476.55228	425.06259	0.00000	0.00000	0.00000	0.00000	0.00000	0.00000	1390.60388	385.01740	531.07874	1397.37427	340.35059	533.25372	1408.03638	113.09577	518.34052	1412.12109	119.04964	430.37433	1494.97900	67.61397	468.04916	1283.58716	46.44577	543.29767	1231.88538	68.60336	481.89294	1275.27747	63.59081	433.66473	1407.79187	1020.39813	326.44925	1229.66040	987.20374	212.09048	1157.28345	632.66681	124.68810	1134.96143	597.78888	131.16118	1106.48633	661.66370	145.70406	1090.99890	616.57831	152.66255	0.00000	0.00000	0.00000	1148.05078	553.03967	138.62593	1145.26721	290.62292	133.84344	1138.03809	244.10995	142.02455	1082.01404	294.08005	134.15276	0.00000	0.00000	0.00000	1112.56555	131.27747	154.37212	1056.74194	164.78107	232.87253	1142.43347	75.07517	235.96657	936.16913	103.71931	203.02264	917.78986	122.19740	143.83604	984.25580	83.29459	97.01824
773	3.08800	1407.29846	1017.80109	407.62213	0.00000	0.00000	0.00000	0.00000	0.00000	0.00000	1381.19141	650.53198	539.55560	0.00000	0.00000	0.00000	1328.54126	650.71729	553.80817	1338.19226	473.50153	524.16675	1338.73730	476.50137	424.93298	0.00000	0.00000	0.00000	0.00000	0.00000	0.00000	1389.55847	385.23779	531.01105	1396.42224	340.56342	533.16406	1407.96423	113.31869	518.41388	1410.34888	118.32030	430.15778	1494.88977	67.85710	468.06436	1283.57068	46.40754	543.30194	1231.81348	68.43599	481.83362	1275.22595	63.61421	433.63596	1405.23096	1020.59448	326.10678	1226.27161	986.52216	211.87427	1155.87158	631.15363	125.34638	1133.58716	596.17700	131.96666	1104.87817	660.10223	145.94200	1089.54163	615.06061	153.08658	0.00000	0.00000	0.00000	1146.75085	551.71375	139.27554	1138.12891	289.07355	134.57599	1129.87488	242.71666	142.58138	1075.03674	293.96478	134.45200	0.00000	0.00000	0.00000	1101.75598	130.47156	154.71983	1046.12915	164.15431	233.51823	0.00000	0.00000	0.00000	924.59882	107.91342	201.18262	906.74066	125.60610	143.43997	972.45929	85.31059	96.72179
774	3.09200	1404.16101	1017.76062	407.21704	0.00000	0.00000	0.00000	0.00000	0.00000	0.00000	1379.19971	650.70874	539.38043	0.00000	0.00000	0.00000	1326.61133	650.77576	553.75446	1336.80042	473.57965	524.11884	1337.15137	476.48859	424.87106	0.00000	0.00000	0.00000	1343.04565	325.67593	522.77612	1388.44336	385.42844	530.94537	1395.39563	340.73962	533.09686	1407.80383	113.46171	518.48206	1410.18835	118.48627	430.19284	1494.02686	67.77039	468.09897	1283.50708	46.34126	543.30560	1231.78003	68.30506	481.83630	1275.10986	63.57055	433.62097	1401.24646	1020.24664	325.78772	1223.01270	985.86066	211.57732	1154.51904	629.51202	125.93367	1132.24194	594.52838	132.70827	1103.37036	658.40686	146.15649	1088.08484	613.33875	153.63121	0.00000	0.00000	0.00000	1145.41138	550.28436	139.80334	1131.07263	287.69403	135.28017	1121.90894	241.52016	143.17978	1068.25269	293.89835	134.76997	0.00000	0.00000	0.00000	1090.99146	129.77872	155.08958	1035.74963	163.69951	234.22070	1117.61340	72.12473	236.80638	913.32520	110.95326	200.93585	896.02271	129.21049	143.19814	960.95679	87.70971	96.48505
